<svg version="1.1" id="Layer_1" xmlns="http://www.w3.org/2000/svg" xmlns:xlink="http://www.w3.org/1999/xlink" x="0px" y="0px" viewBox="0 0 79.7 79.7" style="enable-background:new 0 0 79.7 79.7;" xml:space="preserve">
 <style type="text/css">
  .st0{fill:#FFFFFF;}
 </style>
 <g>
  <g>
   <path class="st0" d="M31.6,0.5c0.9-0.2,1.8-0.3,2.6-0.5l4.2,23.8c-0.9,0.1-1.8,0.2-2.7,0.5L31.6,0.5z M30.5,26.7
			c0.9-0.6,1.8-1.2,2.8-1.6l-12-20.9c-1,0.5-1.9,1-2.8,1.6L30.5,26.7z M23.7,39.8c0-0.9,0.1-1.8,0.2-2.6H0.1C0,38,0,38.9,0,39.7
			c0,0.8,0,1.6,0.1,2.3h23.8C23.8,41.3,23.7,40.6,23.7,39.8 M56,39.8C56,48.8,48.8,56,39.9,56c-8,0-14.6-5.8-15.9-13.4L1.5,50.8
			c0.5,1.8,1.1,3.4,1.8,5.1l22.3-8.2L7.5,63.1c1.2,1.6,2.4,3.1,3.8,4.6l17-14.4L17.1,72.7c1.8,1.2,3.6,2.3,5.6,3.3l10.4-18.2
			l-3.6,20.8c2.2,0.6,4.5,1,6.9,1.2l3.4-19.4l3.4,19.4c2.5-0.2,4.9-0.6,7.2-1.3l-3.2-18l9.1,15.9c2.5-1.1,4.8-2.5,7-4.1L55,57.6
			l12.8,10.8c2-2,3.8-4.2,5.4-6.6l-11.4-9.6l14,5.1c1.3-2.7,2.3-5.5,3-8.5l-12.2-4.5h13c0.2-1.5,0.3-3,0.3-4.6
			c0-1.8-0.1-3.5-0.4-5.3H55.1C55.7,36.2,56,38,56,39.8 M24.1,36.2c0.3-1.4,0.8-2.8,1.5-4L3.2,23.9c-0.6,1.3-1.1,2.7-1.5,4.1
			L24.1,36.2z M69.9,13.4L51.6,28.8c0.4,0.5,0.9,1,1.3,1.5l18.3-15.4C70.7,14.4,70.3,13.9,69.9,13.4 M60.8,5.6
			c-0.6-0.4-1.3-0.8-2-1.2l-12,20.9c0.7,0.3,1.3,0.7,2,1.1L60.8,5.6z M28.9,28L10.6,12.5c-0.8,0.9-1.7,1.9-2.4,2.9l18.3,15.4
			C27.2,29.8,28,28.8,28.9,28 M41.5,23.8c0.8,0.1,1.6,0.2,2.4,0.4L48,0.4c-0.8-0.2-1.6-0.3-2.4-0.4L41.5,23.8z">
   </path>
  </g>
 </g>
</svg>