<?xml version="1.0" encoding="UTF-8"?><svg id="Layer_1" xmlns="http://www.w3.org/2000/svg" viewBox="0 0 490 227.36"><defs><style>.cls-1{fill:#fd372c;}.cls-1,.cls-2,.cls-3,.cls-4{stroke-width:0px;}.cls-2{fill:#0044b5;}.cls-3{fill:#fff;}.cls-4{fill:#ffba00;}</style></defs><path class="cls-3" d="M286.54,91.31c0,11.41-7.18,15.63-18.38,15.63h-.42c-11.2,0-18.38-4.12-18.38-15.63v-59.15h12.25v57.25c0,5.28,2.32,6.76,6.34,6.76s6.34-1.48,6.34-6.76v-57.25h12.25v59.15Z"/><path class="cls-3" d="M297.42,106.1V32.16h12.25l15.53,45.73v-45.73h11.2v73.93h-11.62l-16.16-48.06v48.06h-11.2Z"/><path class="cls-3" d="M347.7,106.1V32.16h12.25v73.93h-12.25Z"/><path class="cls-3" d="M405.26,42.94h-12.36v63.16h-12.25v-63.16h-12.36v-10.77h36.97v10.77Z"/><path class="cls-3" d="M411.99,106.1V32.16h32.43v10.77h-20.17v20.28h16.9v10.77h-16.9v21.34h20.49v10.77h-32.74Z"/><path class="cls-3" d="M490,47.8v42.67c0,11.2-7.39,15.63-18.59,15.63h-18.91V32.16h18.91c11.2,0,18.59,4.44,18.59,15.63ZM470.99,42.94h-6.23v52.39h6.23c4.01,0,6.76-1.48,6.76-6.76v-38.87c0-5.28-2.75-6.76-6.76-6.76Z"/><path class="cls-3" d="M299.43,196.17h-11.51l-9.51-50.7-9.51,50.7h-11.93l-11.62-73.93h12.04l6.13,52.81,9.51-52.81h10.99l9.51,52.81,6.13-52.81h11.41l-11.62,73.93Z"/><path class="cls-3" d="M337.67,179.69h-13.52l-2.64,16.48h-11.83l13.73-73.93h15.42l13.94,73.93h-12.46l-2.64-16.48ZM336.09,169.56l-5.18-32.85-5.18,32.85h10.35Z"/><path class="cls-3" d="M377.07,196.17h-12.25v-26.3l-14.89-47.63h12.88l8.24,34.33,8.24-34.33h12.67l-14.89,47.63v26.3Z"/><g id="g12"><path id="path20" class="cls-3" d="M227.35,113.67c0,62.76-50.94,113.68-113.68,113.68S0,176.43,0,113.67,50.85,0,113.67,0s113.68,50.89,113.68,113.67"/><path id="path22" class="cls-4" d="M54.43,135.61c1.16-.55,3.83-1.73,5.01-2.31,1.37-.7,1.18-1.26.77-2.38-1.79-5.45-2.68-11.24-2.68-17.22,0-30.81,25.05-55.88,55.86-55.88s55.75,25.07,55.75,55.88c0,7.87-1.66,15.44-4.6,22.21-.27.48-.31,1.44.5,1.87.91.38,4.3,1.91,5.29,2.29,1.01.4,1.63.16,2.15-.89,3.38-7.86,5.25-16.44,5.25-25.48,0-35.58-28.85-64.45-64.35-64.45s-64.41,28.88-64.41,64.45c0,7.3,1.21,14.26,3.43,20.81.31.99.85,1.63,2.01,1.1"/><path id="path24" class="cls-4" d="M38.09,143.2c1.31-.69,5.91-2.76,7.12-3.38,1.26-.52.97-1.58.76-2.06-2.68-7.53-4.15-15.58-4.15-24.05,0-39.51,32.08-71.57,71.56-71.57s71.44,32.06,71.44,71.57c0,10.11-2.08,19.71-5.91,28.43-.19.46-.53,1.54.68,1.99,1.09.5,6.23,2.79,7.18,3.22,1.01.41,1.64.23,2.15-.95,4.38-10,6.78-21.08,6.78-32.69,0-45.45-36.92-82.46-82.33-82.46S30.94,68.25,30.94,113.7c0,10,1.83,19.6,5.12,28.5.19.55.61,1.63,2.03.99"/><path id="path26" class="cls-4" d="M15.82,153.44c1.59-.8,11.28-5.28,12.96-6.02,1.76-.75.99-2.07.75-2.8-3.59-9.66-5.54-20.07-5.54-30.92,0-49.36,40.08-89.45,89.41-89.45s89.3,40.1,89.3,89.45c0,12.47-2.6,24.33-7.19,35.15-.32.66-.63,1.97,1.01,2.68,1.52.7,10.96,4.85,12.25,5.36,1.26.62,2.24.48,3.1-1.4,5.45-12.9,8.45-27.04,8.45-41.79,0-59.07-47.97-107.15-106.92-107.15S6.36,54.64,6.36,113.7c0,13.59,2.53,26.55,7.17,38.48.25.67.73,1.93,2.29,1.26"/><path id="path28" class="cls-1" d="M113.52,90.46c6.29,0,11.5-5.11,11.5-11.46s-5.2-11.51-11.5-11.51-11.47,5.1-11.47,11.51,5.06,11.46,11.47,11.46"/><path id="path30" class="cls-1" d="M117.73,150.58c2.22,0,4.01-1.82,4.01-4.06v-25.18c.12-3.19,2.38-7.29,4.6-9.67l23.71-23.69c1.6-1.59,1.6-4.23,0-5.77l-4.32-4.32c-1.56-1.61-4.18-1.61-5.75,0l-21.39,21.44c-1.47,1.39-2.46,2.25-5.08,2.25s-3.71-.87-5.09-2.25l-21.42-21.44c-1.62-1.61-4.17-1.61-5.73,0l-4.36,4.32c-1.59,1.54-1.59,4.18,0,5.77l23.74,23.69c2.24,2.38,4.45,6.48,4.55,9.67v25.18c0,2.24,1.81,4.06,4.06,4.06h8.45"/><path id="path54" class="cls-3" d="M203.03,209.44h1.56c1.76,0,2.45-.23,2.45-1.51,0-.96-.6-1.4-2.08-1.4h-1.92v2.91ZM203.03,214.82h-1.41v-9.5h3.56c2.2,0,3.29.88,3.29,2.7,0,1.69-1.1,2.42-2.29,2.57l2.54,4.24h-1.71l-2.52-4.19h-1.46v4.19ZM211.28,209.95c0-3.79-2.89-6.74-6.61-6.74s-6.61,2.94-6.61,6.74,2.91,6.85,6.61,6.85,6.61-2.91,6.61-6.85ZM196.51,209.95c0-4.52,3.73-8.03,8.15-8.03s8.2,3.51,8.2,8.03-3.75,8.17-8.2,8.17-8.15-3.52-8.15-8.17"/><path class="cls-2" d="M132.82,166.63c2.39.76,5.03,1.72,7.95,2.96,1.45.62,2.78,1.34,3.99,2.15,9.13-5.18,16.9-12.5,22.6-21.27.55-.84.44-1.95-.22-2.7-2.05-2.31-6.45-3.23-10.46-.79l-.03.02c-1.76,1.05-3.22,2.52-4.35,4.23-.92,1.39-1.94,2.74-3.05,4.03-4.49,5.21-10.13,9.08-16.42,11.39Z"/><path class="cls-2" d="M148.67,175.17c3.34,3.86,4.61,8.66,3.4,13.39,13.49-6.95,24.85-17.46,32.8-30.3.3-.48.41-1.06.3-1.62-.9-4.35-6.75-6.95-13.02-3.35,0,0,0,0-.01,0-1.68,1.27-2.56,2.64-3.09,3.4-5.66,8.08-11.89,13.39-20.37,18.48Z"/><path class="cls-2" d="M146.25,152.68c1.05-1.07,1.91-2.3,2.71-3.55.4-.62.5-1.41.2-2.07-1.11-2.42-4.79-3.8-8.61-1.81-5.53,2.81-13.41,10.61-22.08,16.31-.34.22-.3.74.08.89,2.15.86,5.84,1.64,8.73,2.38,2.29,0,11.96-5.02,18.97-12.15Z"/><path class="cls-2" d="M20.31,160.11c3.05-1.4,13.34-6.15,14.72-6.79h0c5.78-2.67,15.37-7.29,21.6-8.4.47-.08.96-.16,1.45-.23.1-.01.19-.03.28-.04.37-.05.75-.1,1.13-.14.3-.04.6-.07.9-.1.33-.03.67-.06,1.01-.09.39-.03.8-.06,1.2-.08.29-.01.57-.03.86-.04.69-.02,1.39-.03,2.1-.03.02,0,.04,0,.06,0,0,0,0,0,0,0,.08,0,.16,0,.24,0,.5,0,1,.03,1.51.05.26.01.52.03.79.05.34.02.68.05,1.02.08.31.03.62.06.93.09.3.03.61.07.91.11,2.26.29,4.65.77,7.17,1.46.03,0,.05.01.08.02.55.15,1.11.32,1.68.5.1.03.2.06.29.09,3.69,1.17,7.73,2.96,11.95,5.24,10.02,5.4,18,13.86,29.56,16.09,8.31,1.57,30.02,7.29,25.16,20.45-2.44,6.64-7.86,8.18-14.69,7.22-.05,0-.1-.01-.15-.02-.3-.04-.6-.1-.91-.15-.22-.04-.44-.08-.66-.12-.24-.05-.47-.09-.71-.14-.37-.08-.74-.16-1.12-.25-.11-.03-.22-.05-.34-.08-7.29-1.79-15.7-5.64-23.67-8.98-.21-.09-.42-.18-.63-.27-.36-.15-.72-.3-1.08-.45-.38-.16-.76-.31-1.13-.46-.3-.12-.59-.24-.89-.36-.45-.18-.89-.35-1.33-.52-.24-.09-.48-.19-.71-.28-.67-.26-1.34-.51-2-.75,0,0-.01,0-.01,0-.43-.16-.86-.31-1.29-.46-.65-.22-1.3-.44-1.95-.64-.61-.19-1.22-.38-1.82-.54-2.74-.76-5.21-1.22-6.89-1.12-.01,0-.02,0-.03,0-.18.01-.34.04-.51.06-.07.01-.14.02-.21.03-.13.03-.24.06-.35.1-.1.03-.2.06-.29.1-.03.02-.06.04-.09.05-.43.23-.69.57-.71,1.06-.16,2.39,3.28,2.35,11.67,5.28,12.84,4.46,16.63,7.9,27.3,11.23,3.69,1.15,7.61,2.3,11.45,2.71.07,0,.13.01.2.02.45.05.89.08,1.33.1.08,0,.17.01.25.02.44.02.87.02,1.31.02.15,0,.31,0,.46-.01.42-.01.83-.03,1.24-.07.11-.01.23-.03.34-.04.37-.04.74-.09,1.1-.16.14-.02.28-.05.42-.07.42-.08.84-.18,1.25-.3.12-.03.24-.07.36-.11.35-.11.7-.23,1.05-.37.1-.04.2-.07.3-.12.41-.17.8-.36,1.2-.57.12-.06.24-.13.35-.2.4-.23.79-.47,1.18-.74.06-.04.11-.09.17-.13.35-.25.69-.53,1.02-.82.43-.38.86-.78,1.27-1.22,0,0,0,0,0,0,15.99-6.67,29.61-17.93,39.2-32.13.93-1.38,2.11-2.58,3.55-3.41.54-.31,1.05-.57,1.52-.74,9.59-3.4,16.14,3.7,11.96,10.44-12.83,20.64-32.57,36.64-55.98,44.7v.02c-10.83,3.73-22.45,5.76-34.53,5.76,0,0-.01,0-.02,0,0,0-.01,0-.02,0-1.13,0-2.25-.02-3.37-.05-23.75-.74-45.7-8.99-63.08-22.84h0c-.06-.04-.11-.08-.16-.13,0,0,0,0,0,0-11.51-9-20.76-20.31-27.4-32.34-.19-.35-.41-.75-.63-1.16-.77-1.45-.17-3.25,1.33-3.94h0Z"/></g></svg>